<svg xmlns="http://www.w3.org/2000/svg" viewBox="0 0 352.61 96.57"><defs><style>.cls-1{fill:#1d1d1d;}</style></defs><title>platify-black</title><g id="Capa_2" data-name="Capa 2"><g id="Capa_1-2" data-name="Capa 1"><path class="cls-1" d="M167.49,54.17c11.78,0,19.15-6.11,19.15-15.94s-7.37-16-19.15-16H148.41v44.1h10.2V54.17Zm-8.88-23.62h8.32c6.23,0,9.38,2.83,9.38,7.68s-3.15,7.62-9.38,7.62h-8.32Z"/><rect class="cls-1" x="189.85" y="19.59" width="9.83" height="46.74"/><path class="cls-1" d="M218.77,31.93c-5.42,0-10.9,1.45-14.62,4.1l3.53,6.86a16.31,16.31,0,0,1,9.76-3.15c5.29,0,7.81,2.46,7.81,6.68h-7.81c-10.33,0-14.55,4.16-14.55,10.14s4.73,10.27,12.66,10.27c5,0,8.51-1.64,10.33-4.72v4.22h9.2V47C235.08,36.72,229.1,31.93,218.77,31.93Zm6.48,23.69c-1.13,3.09-4,4.6-7.24,4.6-3.46,0-5.54-1.64-5.54-4.1,0-2.27,1.45-4,6-4h6.74Z"/><path class="cls-1" d="M261.54,66V57.76a6.67,6.67,0,0,1-4,1.26c-2.64,0-4.21-1.57-4.21-4.47V40.75h8.19V33.19h-8.19V24.94h-9.83v8.25h-5.23v7.56h5.23V54.67c0,8.07,4.66,12.16,12.66,12.16A16.59,16.59,0,0,0,261.54,66Z"/><path class="cls-1" d="M265.71,22.23A5.56,5.56,0,1,0,276.82,22a5.21,5.21,0,0,0-5.55-5.28A5.33,5.33,0,0,0,265.71,22.23Z"/><rect class="cls-1" x="266.35" y="33.19" width="9.83" height="33.14"/><path class="cls-1" d="M339.77,33.19h-9.45l-9.58,23-9.51-23H295.8V31.74c0-3.34,1.58-4.91,4.47-4.91a6.86,6.86,0,0,1,4,1.2l2.58-7.12c-1.82-1.26-4.72-1.83-7.49-1.83-8.44,0-13.1,5-13.1,12.6v1.51H281v7.56h5.23V66.33h9.82V40.75h8.29l11.43,26.59-.13.31c-1.32,3-2.84,4.22-5.54,4.22a8.72,8.72,0,0,1-5.55-2.14l-3.59,7c2.21,2,6,3.09,9.45,3.09,6.11,0,10.77-2.46,14-10.65Z"/><polygon class="cls-1" points="351.77 33.19 351.59 33.19 350.1 36.73 348.61 33.19 348.42 33.19 347.74 33.19 347.58 33.19 347.58 38.01 348.42 38.01 348.42 34.73 349.88 38.01 350.32 38.01 351.77 34.73 351.77 38.01 352.61 38.01 352.61 33.19 352.45 33.19 351.77 33.19"/><polygon class="cls-1" points="345.28 38.01 345.28 33.93 346.75 33.93 346.75 33.19 342.98 33.19 342.98 33.93 344.44 33.93 344.44 38.01 345.28 38.01"/><path class="cls-1" d="M36.63,16.37h0a7.1,7.1,0,0,0-7.1,7.1V44.84H14.19v-7.2A7.1,7.1,0,0,0,7.1,30.55h0A7.1,7.1,0,0,0,0,37.64V58.92A7.1,7.1,0,0,0,7.1,66h0a7.1,7.1,0,0,0,7.09-7.1V51.73H29.53V73.1a7.1,7.1,0,0,0,7.1,7.1h0a7.1,7.1,0,0,0,7.09-7.1V23.47A7.1,7.1,0,0,0,36.63,16.37Z"/><path class="cls-1" d="M125.35,30.55a7.23,7.23,0,0,0-7.23,7.25v3.68a3.35,3.35,0,0,1-3.35,3.36h-8.64a3.35,3.35,0,0,1-3.35-3.36V23.63A7.2,7.2,0,0,0,96,16.38a7,7,0,0,0-3.42.73A5.42,5.42,0,0,1,87.41,17L74.75,9.69a3,3,0,0,1-1.5-2.59h0A7.1,7.1,0,0,0,66.16,0h0a7.1,7.1,0,0,0-7.1,7.1V9.28a7.1,7.1,0,0,0,7.1,7.09h0a7.16,7.16,0,0,0,2.54-.47,4.9,4.9,0,0,1,4.24.34l11.57,6.68A8.12,8.12,0,0,1,88.59,30v23.3a8.14,8.14,0,0,1-4.08,7.06l-7.94,4.59a5,5,0,0,1-5.78-.61,7.07,7.07,0,0,0-4.63-1.72h0a7.1,7.1,0,0,0-7.1,7.1V89.47a7.1,7.1,0,0,0,7.1,7.1h0a7.1,7.1,0,0,0,7.09-7.1V77.55A5.41,5.41,0,0,1,76,72.87l8.55-4.93a2.73,2.73,0,0,1,4.09,2.36v2.64a7.23,7.23,0,0,0,7.23,7.26,7.1,7.1,0,0,0,7-7.1v-18a3.35,3.35,0,0,1,3.35-3.35h8.64a3.35,3.35,0,0,1,3.35,3.35v3.69A7.23,7.23,0,0,0,125.35,66a7.09,7.09,0,0,0,7-7.1V37.64A7.09,7.09,0,0,0,125.35,30.55Z"/><rect class="cls-1" x="59.06" y="28.41" width="14.19" height="21.91" rx="7.1"/></g></g></svg>